<?xml version="1.0" encoding="utf-8"?>
<!-- Generator: Adobe Illustrator 25.0.0, SVG Export Plug-In . SVG Version: 6.00 Build 0)  -->
<svg version="1.1" id="Layer_1" xmlns="http://www.w3.org/2000/svg" xmlns:xlink="http://www.w3.org/1999/xlink" x="0px" y="0px"
	 viewBox="0 0 100 100" style="enable-background:new 0 0 100 100;" xml:space="preserve">
<g>
	<g>
		<path d="M1,23.1c3.8,5.5,7.6,11,10.9,16.8c1.5,2.7,2.9,5.4,4.7,7.9c0.6,0.8,1.4,1.6,1.9,2.5c1.2,1.9,0.9,1.3-0.6,3.2
			C14.6,57.6,11,61.8,9,66.6c-1.2,2.9-2,5.8-3.6,8.5s-1.8,5.3-3.1,8.1c-1.4,2.9,3,5.4,4.3,2.5c1.4-3,1.8-5.9,3.5-8.8
			c1.6-2.7,2.4-5.8,3.6-8.7c2.5-5.7,8.3-9.8,10.4-15.5c0.6-1.7,0.5-2.8-0.5-4.3c-1.8-2.8-4.1-5.3-5.8-8.3C14,33.5,9.8,27,5.3,20.5
			C3.5,17.9-0.8,20.4,1,23.1L1,23.1z"/>
	</g>
</g>
<g>
	<g>
		<path d="M24.8,51.9c2.8-6.1,5.7-12.4,10.5-17.2c5.3-5.3,12.9-8.3,20-10.2c9.3-2.4,15.3,1.5,22.2,7.1c6,4.9,10.5,10.5,14.2,17.3
			C95.6,56.1,96,65,86.1,67c-7.2,1.5-15.3,1.3-22.6,0.7c-7.8-0.7-15.3-2.9-22.7-5.4c-7-2.4-13.8-5.5-17.2-12.4
			c-1.4-2.9-5.8-0.3-4.3,2.5c6.1,12.1,22.3,16.3,34.5,18.9c7.8,1.7,15.7,2.1,23.7,1.7c6-0.3,13.2-0.4,17.8-4.7c10-9.4,1-24-5.8-32.3
			c-4.4-5.3-10.2-9.9-15.9-13.6c-5.8-3.7-11.8-4.5-18.5-2.8c-7.5,1.9-15.4,5.1-21.3,10.1c-6.2,5.2-9.8,12.7-13.1,19.9
			C19.1,52.2,23.4,54.8,24.8,51.9L24.8,51.9z"/>
	</g>
</g>
<g>
	<g>
		<path d="M75.6,46.9c1.4,1.8,2.8,3.7,4.3,5.5c1.1,1.4,2.4,3.9,4,4.7c1.4,0.8,3.3,0.1,3.7-1.5v-0.1c0.3-1.4-0.4-2.7-1.7-3.1
			c0,0,0,0-0.1,0c-3.1-1-4.4,3.8-1.3,4.8c0,0,0,0,0.1,0c-0.6-1-1.2-2.1-1.7-3.1v0.1c1.2-0.5,2.4-1,3.7-1.5c-0.5-0.3-1.2-1.7-1.6-2.1
			c-0.6-0.8-1.3-1.6-1.9-2.4c-1.3-1.6-2.5-3.2-3.8-4.9C77.1,40.9,73.6,44.4,75.6,46.9L75.6,46.9z"/>
	</g>
</g>
<g>
	<g>
		<path d="M82.7,44.5c-3.2,3-5.9,6.3-8.2,10c-1.7,2.7,2.6,5.3,4.3,2.5c2.1-3.3,4.5-6.3,7.4-9C88.5,45.8,85,42.3,82.7,44.5L82.7,44.5
			z"/>
	</g>
</g>
</svg>
