<?xml version="1.0" encoding="utf-8"?>
<!-- Generator: Adobe Illustrator 25.0.0, SVG Export Plug-In . SVG Version: 6.00 Build 0)  -->
<svg version="1.1" id="Layer_1" xmlns="http://www.w3.org/2000/svg" xmlns:xlink="http://www.w3.org/1999/xlink" x="0px" y="0px"
	 viewBox="0 0 100 100" style="enable-background:new 0 0 100 100;" xml:space="preserve">
<path d="M19,18h12c0,0-3,15,11,15V18h17v15c0,0,13,3,15-15h13c0,0-2,23-27,23v15c0,0,27,5,27,25H75c0,0-2-17-15-16v17H43V65
	c0,0-19-1-19,17H13c0,0,3-25,29-26V42C42,42,17,40,19,18z"/>
</svg>
