<?xml version="1.0" encoding="utf-8"?>
<!-- Generator: Adobe Illustrator 25.1.0, SVG Export Plug-In . SVG Version: 6.00 Build 0)  -->
<svg version="1.1" id="Layer_1" xmlns="http://www.w3.org/2000/svg" xmlns:xlink="http://www.w3.org/1999/xlink" x="0px" y="0px"
	 viewBox="0 0 100 100" style="enable-background:new 0 0 100 100;" xml:space="preserve">
<g>
	<path d="M70.86,24.6c14.01,0,25.4,11.39,25.4,25.4c0,14.01-11.39,25.4-25.4,25.4H29.14c-14.01,0-25.4-11.39-25.4-25.4
		c0-14.01,11.39-25.4,25.4-25.4H70.86 M70.86,24.5H29.14c-14.08,0-25.5,11.42-25.5,25.5v0c0,14.08,11.42,25.5,25.5,25.5h41.73
		c14.08,0,25.5-11.42,25.5-25.5v0C96.36,35.92,84.95,24.5,70.86,24.5L70.86,24.5z"/>
</g>
</svg>
