<?xml version="1.0" encoding="utf-8"?>
<!-- Generator: Adobe Illustrator 25.0.0, SVG Export Plug-In . SVG Version: 6.00 Build 0)  -->
<svg version="1.1" id="Layer_1" xmlns="http://www.w3.org/2000/svg" xmlns:xlink="http://www.w3.org/1999/xlink" x="0px" y="0px"
	 viewBox="0 0 100 100" style="enable-background:new 0 0 100 100;" xml:space="preserve">
<style type="text/css">
	.st0{fill:none;stroke:#000000;stroke-miterlimit:10;}
</style>
<path class="st0" d="M176.5,76.5"/>
<path d="M62.5,17.5c1,4-1,5-1,5l1,9c2,0,3,3,3,5s0,5-1,9s-6,10-6,10l-10,10c0,0,0,1,0,2s2,4,2,4L54,77c1.5,1.5,7.5,8.5,8,9
	c0.4,0.4,2.4,4.2,3.4,5.6C67,94,67,94,65.5,95.5l0,0l-8.6-1.9c-0.3-0.1-0.5-0.2-0.7-0.3L52,91l-4-3c0,0-3-2-4.7-5.2L43,80
	c0,0-1.3,1.2-3.5,2.5c-2.2,1.3-8.8,1.5-10.2,1.5c-0.2,0-0.4,0-0.5,0l-4.2-0.5l-5-1c0,0-4.4-2.4-6-4c-2-2-3-4-3-4v-3.1
	c0-0.5,0.4-0.9,0.9-0.9L16,71l9.5,2.5h6l6-2l3.4-4.3c0.1-0.1,0.2-0.2,0.3-0.3l6.4-6.4L50,41c0,0,0-4,3.5-6.5l-3-6c0,0-1-3-1-4
	s1-9,1-9s-1-3-2-4s-1,0-1,0S45.7,14.3,45,15c-0.5,0.5-5.5,5.5-5.5,5.5s-3,4-4,3s0-5,0-5s1-3,2-4s13-9,14-9s7-1,9,0s5,3,5,3s6,4,6,13
	c0,3-2,4-4,2s-5-9-5-9V17.5z"/>
</svg>
