<?xml version="1.0" encoding="utf-8"?>
<!-- Generator: Adobe Illustrator 25.0.0, SVG Export Plug-In . SVG Version: 6.00 Build 0)  -->
<svg version="1.1" id="Layer_1" xmlns="http://www.w3.org/2000/svg" xmlns:xlink="http://www.w3.org/1999/xlink" x="0px" y="0px"
	 viewBox="0 0 100 100" style="enable-background:new 0 0 100 100;" xml:space="preserve">
<g>
	<path d="M46.9,72.2l-5.6-25h3.8c12.8,0,19.2-7.6,19.2-18c0-9.2-5.2-16.9-16.9-16.9c-9.9,0-15.1,5.8-15.1,9.9c0,4.1,8.7,3.3,8.7,11
		c0,3.7-2.6,7.6-7.8,7.6c-4.8,0-9.1-3.7-9.1-11c0-12.4,10.5-20.9,24.4-20.9C61.7,8.8,76,17,76,34.4C76,47.8,65.5,60,50.4,60
		L46.9,72.2z M47.5,75.7c5.1,0,8.7,3.9,8.7,8.7s-3.6,8.7-8.7,8.7s-8.7-3.9-8.7-8.7S42.3,75.7,47.5,75.7z"/>
</g>
</svg>
