<?xml version="1.0" encoding="utf-8"?>
<!-- Generator: Adobe Illustrator 24.0.3, SVG Export Plug-In . SVG Version: 6.00 Build 0)  -->
<svg version="1.1" id="Layer_1" xmlns="http://www.w3.org/2000/svg" xmlns:xlink="http://www.w3.org/1999/xlink" x="0px" y="0px"
	 viewBox="0 0 100 100" style="enable-background:new 0 0 100 100;" xml:space="preserve">
<style type="text/css">
	.st0{fill:none;stroke:#000000;stroke-width:0.1;}
</style>
<g>
	<path class="st0" d="M46.88,72.18l-5.58-25h3.84c12.79,0,19.19-7.56,19.19-18.03c0-9.19-5.23-16.86-16.86-16.86
		c-9.89,0-15.12,5.81-15.12,9.89c0,4.07,8.72,3.26,8.72,11.05c0,3.72-2.56,7.56-7.79,7.56c-4.77,0-9.07-3.72-9.07-11.05
		c0-12.44,10.47-20.93,24.42-20.93c13.03,0,27.33,8.14,27.33,25.59c0,13.38-10.47,25.59-25.59,25.59L46.88,72.18z M47.46,75.67
		c5.12,0,8.72,3.95,8.72,8.72s-3.61,8.72-8.72,8.72s-8.72-3.95-8.72-8.72S42.34,75.67,47.46,75.67z"/>
</g>
</svg>
