<?xml version="1.0" encoding="utf-8"?>
<!-- Generator: Adobe Illustrator 25.0.0, SVG Export Plug-In . SVG Version: 6.00 Build 0)  -->
<svg version="1.1" id="Layer_1" xmlns="http://www.w3.org/2000/svg" xmlns:xlink="http://www.w3.org/1999/xlink" x="0px" y="0px"
	 viewBox="0 0 100 100" style="enable-background:new 0 0 100 100;" xml:space="preserve">
<path d="M86.2,77.3L75.9,59.1c2.4-2.6,4.6-5.4,6.1-8.6c2.9-6.3,2.9-12.5-1.1-18.3c-5.3-7.7-15.5-9.3-23.2-5.1L50,13.7l-7.3,12.8
	c-0.7-0.3-1.5-0.7-2.3-0.9c-6.7-2.2-15.1,0.3-19.2,6c-4.6,6.3-4.6,13-1.1,19.7c1.3,2.5,2.9,4.6,4.7,6.7l-11,19.2h28.7
	c2.8,3.1,5.6,6.1,8.3,9l0.5-0.5c2.6-2.8,5.2-5.6,7.8-8.5H86.2z"/>
</svg>
