<svg xmlns="http://www.w3.org/2000/svg" xmlns:xlink="http://www.w3.org/1999/xlink" viewBox="0 0 100.1 100.1"><defs><style>.cls-1{filter:url(#luminosity-noclip);}.cls-2{mask:url(#mask);}.cls-3{fill:#fff;stroke:#231f20;stroke-width:0.1px;}.cls-3,.cls-4{stroke-miterlimit:10;}.cls-4{fill:none;stroke:#000;stroke-width:0.1px;}</style><filter id="luminosity-noclip" x="0" y="0" width="100.1" height="100.1" filterUnits="userSpaceOnUse" color-interpolation-filters="sRGB"><feFlood flood-color="#fff" result="bg"/><feBlend in="SourceGraphic" in2="bg"/></filter><mask id="mask" x="0" y="0" width="100.1" height="100.1" maskUnits="userSpaceOnUse"><polygon class="cls-1" points="87.05 53.05 81.67 50.12 81.67 96.05 73.92 91.82 73.92 98.05 13.43 65.05 13.43 10.05 18.43 12.78 18.43 4.05 65.05 29.48 65.05 21.05 87.05 33.05 87.05 53.05"/></mask></defs><g id="Layer_2" data-name="Layer 2"><g id="Layer_1-2" data-name="Layer 1"><g class="cls-2"><rect class="cls-3" x="0.05" y="0.05" width="100" height="100"/></g><polygon class="cls-4" points="87.05 53.05 81.67 50.12 81.67 96.05 73.92 91.82 73.92 98.05 13.43 65.05 13.43 10.05 18.43 12.78 18.43 4.05 65.05 29.48 65.05 21.05 87.05 33.05 87.05 53.05"/></g></g></svg>