<?xml version="1.0" encoding="utf-8"?>
<!-- Generator: Adobe Illustrator 25.0.0, SVG Export Plug-In . SVG Version: 6.00 Build 0)  -->
<svg version="1.0" id="Laag_1" xmlns="http://www.w3.org/2000/svg" xmlns:xlink="http://www.w3.org/1999/xlink" x="0px" y="0px"
	 viewBox="0 0 347.8 363.1" style="enable-background:new 0 0 347.8 363.1;" xml:space="preserve">
<g transform="translate(0.000000,2595.000000) scale(0.100000,-0.100000)">
	<path d="M2441.9,25403.8c-16.4-5.7-27.3-10.8-36.6-16.9c-3.2-2.3-8.4-5.3-11.1-7c-2.9-1.6-6.3-3.8-7.7-5c-1.5-1.1-9.5-5.6-17.9-10
		c-8.4-4.3-17.7-9.3-20.6-10.9c-8.3-4.6-36.3-18.4-41.8-20.5c-14.7-5.8-22.8-9.2-31.1-13.3c-20.4-9.8-49.3-21.3-53.7-21.3
		c-1,0-6.9-1.7-13.1-3.8c-6.2-2.1-14.6-4.8-18.7-6.2c-4-1.4-11.6-3.2-16.7-4.1c-5.1-0.9-11.7-2.1-14.6-2.6c-2.9-0.6-8.1-1-11.3-1
		c-13.2,0-26.3-4.3-43.8-14.3c-10.2-5.9-17.9-7.7-28.8-6.9c-5.6,0.4-10.4,1.4-13.3,2.7c-3.7,1.6-5.7,1.9-10,1.4
		c-5.4-0.6-20.2-4.8-30.5-8.6c-33.3-12.1-55.7-18-83.5-21.9c-6.2-0.9-12.9-2-14.7-2.5c-8-2.1-43.8-16.1-51.6-20.2
		c-1.6-0.9-8.6-4.7-15.7-8.5c-7-3.7-17.6-10.5-23.6-14.9c-5.9-4.4-12.4-8.9-14.3-10.1c-7.5-4.5-33.1-18.6-35.9-19.7
		c-1.6-0.7-7.2-2.8-12.3-4.7c-5.1-2-13.1-6.1-17.7-9c-4.6-2.9-12.1-7.9-16.7-10.8c-4.6-3-9.4-6.3-10.8-7.3c-1.4-1-5.5-3.8-9.1-6.4
		c-3.6-2.5-10.3-8-14.8-12.1c-4.4-4.1-14.4-11.8-22.3-17c-11.4-7.8-15.6-11.2-21.7-18.2c-15.2-17.2-19.9-23.9-33.2-47.5
		c-2-3.5-6.6-10.8-10.2-16.2c-3.6-5.4-7.3-11.3-8.1-13.1c-0.7-1.8-2.3-4.4-3.3-5.9c-1.2-1.5-3.4-4.6-5-7.1s-4.6-6.6-6.9-9.3
		c-2.2-2.7-5.1-7.1-6.4-9.8c-1.3-2.7-3.2-6.5-4.3-8.4c-1.1-1.9-2-3.9-2-4.6c0-1.4-8.1-21-9.9-24.3c-2-3.3-7.6-14.7-10.3-20.7
		c-11.9-26.5-15.4-37.4-19.1-58.7c-2.5-14.4-2.9-19.9-2.9-32.9c0.1-16.7-1.3-30.7-3.5-36.5c-4.3-11-5.6-19.9-5.9-42.7
		c-0.3-16.5-0.8-24.1-2-29.1c-2.9-11.9-1.1-38,4.1-59.2c0.9-3.5,1.6-7.5,1.5-8.8c0-1.4,0.6-4.9,1.4-7.9c2.9-11.4,8.1-34.2,9.1-40.6
		c0.6-3.7,2.5-10.5,4.1-15.2c1.7-4.7,3.4-10.3,4-12.5c1.7-6.3,6.5-19.7,11.7-32.1c2.8-6.5,5.4-15.1,6.4-20.1
		c2.4-12.8,8.6-30.2,14.6-41.2c6.9-12.6,8.1-18.9,6-32.6c-2-12.8-8.6-31.5-15.6-44.4c-1.4-2.5-3.4-7.5-4.6-11.3
		c-2.8-8.5-9.4-20.1-12.2-21.1c-1.3-0.5-3.1-0.2-5,0.8c-3.6,1.8-4.5,3.1-3.8,5.3c0.9,2.8-2.6,8.5-8.3,13.5l-5.4,4.8l-0.8,9.6
		c-0.4,5.4-1.5,11.7-2.4,14.2c-1,2.8-1.4,5.8-1,8.2c0.7,5-3,13.1-8.6,18.7c-5.7,5.6-7.6,8.6-7.6,12.1c0,3.1-3.6,14.8-6.2,19.7
		c-3.1,6.1-12.8,13.2-17.9,13.2c-2.1,0-1.9-2.4,0.5-4.4c2.1-1.9,2.7-4.4,1-4.4c-0.6,0-2.3,1.2-3.6,2.6l-2.6,2.6l0.5-3
		c0.5-3.1-0.4-3.6-5.3-3.2c-2.5,0.2-2.2-2.1,0.5-5.4c3.9-4.6,4.1-7.6,0.8-11c-2.8-2.9-3-2.9-5.6-1.6c-6.4,3.3-5.8-2.1,0.9-7.2
		c9.9-7.6,12.9-11.2,14.7-17.7c2.2-7.9,2.2-9.4,0-8.6c-1,0.5-5.3,1.7-9.6,2.7c-9.8,2.4-14.2,4.2-14.8,6.4c-0.3,1-1.3,3.2-2.2,5
		c-1.6,3.2-1.6,3.2-3.1,1.2l-1.6-2.1l-6.7,2.9c-3.6,1.7-8.1,3-9.6,3c-2.9,0-2.9-0.2-2.4-3.1c0.8-4.1-1.5-6.7-6.3-6.7
		c-2,0-4.4-0.7-5.5-1.4c-1.8-1.4-1.6-1.8,4.3-7.2c3.3-3.1,6.1-6.4,6.1-7.2c0-0.7-0.8-2.2-1.7-3.1c-1.5-1.7-1.5-2.1-0.3-2.8
		c0.8-0.5,3.2-0.7,5.4-0.3c2.2,0.3,6.1,0.6,8.6,0.5c5.7,0,10.2-2.9,14.2-9.2c3.4-5.7,11.9-14.3,16-16.4c2-1,5.1-2.1,7.1-2.5
		c2-0.4,5.7-1.8,8.3-3s5.4-2.4,6.3-2.4c2.8,0,8.8-4.7,16.1-12.5c5-5.2,8.7-8.2,13.2-10.3c10.8-5.2,13-10.7,5.9-14.9
		c-8.5-4.9-13.1-5.3-130-9.3c-36.5-1.4-84.2-3.6-103.2-5.1c-7.6-0.6-26.1-1.4-41.3-1.9c-15.1-0.5-30.4-1.1-33.9-1.4
		c-18.2-1.7-31.4-2-66.8-1.8c-63.6,0.5-95.2,2.4-134.2,7.9l-4.9,0.7l9,8.6c4.9,4.8,9.6,10.1,10.4,11.8c4.5,9.6,5.8,13.3,8.9,23.9
		c1.9,6.5,4.1,15.2,5.1,19.6c2.8,12.9,4.6,15.2,12.1,15.2c2.2,0,7.7,0.9,12.1,1.9c8.6,2.1,30.3,5,36.4,5c3.8,0,36.3,8.1,42,10.4
		c1.9,0.8,6.6,2.1,10.4,2.8c7.4,1.6,22.2,6.1,33.4,10.1c3.8,1.4,12,5.3,18.2,8.7c6.2,3.4,14.8,8,19.3,10c4.3,2.1,9.8,5,12.3,6.6
		c2.4,1.5,7.2,4.2,10.7,6c3.5,1.9,9.2,5,12.8,7.2s9.7,5.8,13.8,8.1c4,2.3,9.9,6.2,13.3,8.7c3.2,2.6,8.2,5.9,10.8,7.5
		c2.8,1.6,8.2,5.8,12.1,9.4c3.9,3.7,10.6,9.3,14.7,12.6c25.8,20.1,46.9,40.2,63.6,60.4c5.4,6.5,12.5,14.6,15.7,18.2
		c9.8,10.7,18.3,24.6,30.8,50.6c6.4,13.6,12.1,25.7,12.5,27c0.4,1.4,1.3,3.3,2,4.4c0.7,1.1,2.9,8,4.8,15.2c2,7.3,5.1,18.2,7,24.1
		c1.8,6,3.7,13.5,4.3,16.7s1.8,8.4,2.5,11.3c7.1,27.8,6.9,25.8,6.7,55c-0.1,14.8-0.4,38.4-0.7,52.5c-0.4,20.9-0.2,26.6,1.1,32.4
		c2.4,10.6,3,41.2,1.1,53.4c-0.9,5.3-2.1,14.1-2.7,19.5c-0.6,5.4-1.7,12.3-2.5,15.2c-0.9,2.9-1.8,9.4-2.1,14.2
		c-0.7,9-0.5,10.7,5.6,45.2c2.4,13.4,3.8,39.5,4.5,80.1c0.6,34.3,0.6,34.3-6.2,55.8c-3.3,10.7-6.3,15.8-10.3,17.9
		c-3.2,1.8-21-0.5-30.6-3.9c-14.2-4.9-45.6-21.2-52.9-27.3c-6.6-5.6-8-6.5-28.5-19.6c-14.4-9.2-39.2-22.2-51.1-26.8
		c-11.7-4.5-29.1-13.1-34.9-17.2c-16.3-11.5-23-15.1-39.1-20.8c-5-1.8-10.2-2.6-20-3.2c-7.3-0.5-13.6-1.1-14-1.4
		c-1.2-0.7-24.6-7.5-25.9-7.5c-1.7,0-18.9-6.7-27.6-10.6c-8.4-3.8-18.4-10.4-24.8-16.1c-2.7-2.4-13.6-10.8-24.1-18.7
		c-21.8-16.2-30.4-24.7-41.3-40.5c-6.1-8.8-9.9-13.2-22.1-24.2c-12.4-11.3-15.9-15.2-22.4-24.7c-4.2-6.2-8.6-13-9.7-15.1
		c-1.1-2.1-4.1-6.3-6.8-9.3c-8.6-9.8-13.7-19.1-19.7-36.4c-3-8.9-7.7-21-10.2-27c-2.6-5.9-5.2-13-5.9-15.7
		c-0.7-2.7-4.3-12.4-8.1-21.6c-4.7-11.5-7.6-20.1-9-27.5c-4.6-22.7-6.3-29.9-9.9-42c-2.2-6.9-4.4-16.1-5.1-20.6
		c-1.7-10.4-1.6-88.5,0-105c0.7-6.2,1.4-13.8,1.6-16.7c0.3-2.9,1.6-9.6,2.9-14.7c2.3-8.7,3.9-14.3,9.5-31.5
		c1.1-3.5,2.8-8.6,3.5-11.3c0.9-2.7,4-10,7-16.2c10.5-21.8,25.2-40.9,59.4-77.7c11-11.8,15.8-18.3,18.1-24c1.6-4.2,1.6-5,0-13.1
		c-0.9-4.7-2.1-10.5-2.5-13c-0.9-5.2-6.5-21.5-10.2-29.9c-3-6.9-9.9-15.2-15.6-19.1c-2.3-1.6-7.5-4.1-11.5-5.6
		c-7.3-2.8-7.6-2.8-32.4-3.2c-58.6-0.9-102.5-0.9-129.2,0c-15.6,0.6-41.8,0.9-58,0.9c-20.7-0.1-34,0.3-44.7,1.4
		c-8.4,0.9-29.4,2.2-46.7,2.9c-17.3,0.8-36.7,1.9-43.1,2.5c-6.4,0.5-25,0.9-41.3,0.9c-16.2,0-30.5,0.2-31.6,0.5
		c-1.1,0.2-4,0.5-6.6,0.5c-2.7,0.1-4.7,0.6-4.7,1.1c0,0.6,1.8,3.5,4,6.5c4.7,6.5,8.7,15,8.7,18.9c0,5.4,2,6.6,11,6.7
		c17,0.1,27.9,4.9,39.6,17.3c13.3,14.1,26.5,37.4,29.6,52.3c0.9,3.8,2.3,10.1,3.2,13.9c2.5,9.2,4.3,31.9,3.5,42
		c-0.4,4.5-1.7,12.2-2.9,17c-1.3,4.9-2.8,11.5-3.3,14.7c-2.9,16.3-25.8,83.7-34,100.3c-2.3,4.6-9.9,23.1-12.8,31
		c-0.7,1.9-5.3,11.6-10.3,21.6c-10.7,21.7-20.5,44-25.3,57.4c-3.9,11.4-11.4,24.3-18.6,32.3c-5.5,6.1-7.5,9.7-12.3,21.6
		c-1.7,4.1-3.5,7.6-4.2,7.6c-0.6,0-2.9-4.4-5.3-9.7c-2.7-6-6.7-13.1-10.7-18.4c-3.6-4.8-10.6-15.1-15.5-23s-11.3-17.8-14.1-22.1
		c-2.8-4.3-7.3-13.6-10-20.6c-2.8-7-5.6-13.9-6.3-15.2c-0.7-1.4-2.1-4.9-3-7.9c-1-2.9-2.6-6.5-3.4-7.9c-1-1.4-3.3-5.8-5.2-9.8
		c-7.3-15.5-15.1-33-15.9-35.4c-0.4-1.4-2.2-5.6-4-9.5c-1.9-3.9-3.8-9.4-4.3-12.3c-0.6-2.8-1.4-6.5-2-8.2c-1-3.3-1.8-15.8-2.6-43.6
		c-0.7-20.5,0.6-39.3,3.2-48.9c0.8-3.1,1.9-7.3,2.3-9.1c0.4-1.9,1.7-7,2.9-11.3c1.2-4.3,3-11.2,4.1-15.2c2.7-9.6,5.2-16.7,8.8-24.6
		c4.5-9.7,5.6-11.7,11.5-20.1c3-4.2,6.9-9.7,8.6-12.3c1.7-2.5,6.8-8.5,11.3-13.3c9.2-9.8,15.6-13.4,31.8-17.9
		c8.4-2.4,11.8-3.6,30-11.2c9.8-4,10-4.3,9.2-11.4c-0.6-5.5-1-6.1-6.5-11.5c-7.4-7.3-12.5-9.5-25.4-11.1c-9.2-1.1-11.6-1.1-22.7,0.6
		c-6.8,1.1-19.5,2.4-28,2.9s-17.4,1.5-19.6,2c-12.6,2.8-20.3,3.2-30.3,2.2c-10.9-1.3-14.8-0.7-21.6,3.1l-3.6,2.1l-4.1-2.3
		c-4.5-2.5-5.4-2.3-3.6,0.6c1.1,1.8,1,2.4-0.4,3.8c-1.2,1.4-1.5,2.9-1.1,5.3c0.4,2.6,0.1,3.8-1.1,4.8c-1.5,1.2-1.9,1.2-2.9-0.1
		c-0.6-0.9-2.4-2.2-4-2.9c-2-0.9-3.7-3-5.4-6.5c-3.8-8.1-4.8-8.7-10.1-6.9c-4.2,1.5-4.4,1.4-9.3-1.5c-3.8-2.2-8.4-3.4-19.1-5.4
		c-14.8-2.7-14.7-2.7-77.5-4.2c-38-1-54.1-1.9-74.4-4.3c-6.9-0.8-21.2-2-31.7-2.6c-10.5-0.6-22.2-1.5-25.8-2.1s-11.4-1.5-17.2-2
		c-17.5-1.4-29.8-2.8-35-3.8c-2.8-0.5-11.6-1.4-19.8-1.9c-8.1-0.5-19.6-1.9-25.6-2.9c-11.3-2.1-24.3-3.6-27.2-3.3
		c-1.6,0.3-1.8-0.9-1.8-11v-11.3h3c1.6,0,5.9,0.7,9.5,1.5c3.6,0.8,13.5,2.2,21.8,2.9c20,2.1,37,4,46.7,5.3c4.3,0.6,17.6,2,29.5,3
		c11.9,1.2,25.4,2.8,30,3.5s22.5,2.1,39.8,2.8c17.3,0.7,33.4,1.6,35.9,1.9c10.3,1.3,70.1,1.7,95.2,0.6c38.9-1.6,47.9-3.5,51.5-11.3
		c1-2.1,2.7-4.4,3.6-5.3c0.9-0.9,2.3-3.7,2.9-6.3c1-3.5,1.9-5,3.7-5.7c1.4-0.5,3.9-2.3,5.8-3.8c1.9-1.7,3.7-2.9,4.2-2.9
		c1.4,0,2.9,3.5,3.9,8.7c0.5,2.6,1.2,5.9,1.6,7.4c0.4,1.8,0,4.1-1.1,6.7c-2.2,4.6-1.6,5.4,2.2,3.4c2.3-1.1,4.3-1.3,9.3-0.6
		c3.5,0.4,7.3,1.3,8.5,1.9c1.1,0.6,6.6,1.1,12.2,1.1c10.2,0,10.3,0,19-4.4c4.8-2.5,10.2-5.7,12.1-7.2c4.3-3.4,8.4-6.1,9.3-6.1
		c1,0-1.7,5-6.4,12.2c-4.4,6.7-4.5,9.4-0.3,10.6c1.7,0.5,18.7,0.6,37.8,0.2c34.1-0.6,35-0.6,39.8-2.9c2.8-1.3,6.7-3.7,8.7-5.5
		c4.4-3.6,9.4-11.1,9.4-14.1c0-5.1-10-20-15.5-23.1c-2.2-1.2-7.1-1.5-25.8-1.6c-14.4,0-25.3-0.5-29-1.3
		c-24.5-5.1-38.3-15.2-60.7-44.3c-3-4-8.9-11.3-13-16.1c-8-9.6-11.6-16.2-15.7-29.1c-2.9-9-4.3-12.3-12.7-29.8
		c-7.2-15.1-10.9-26.2-13.3-39.5c-1.1-5.9-2.7-14-3.4-17.7c-0.9-3.8-2-11.1-2.6-16.2c-0.6-5.1-1.5-12-2-15.2
		c-0.9-5.5-0.5-34.9,0.5-44.6c0.3-2.5,1.2-6.9,2.1-9.8c2.3-8,8.3-27.5,9.7-32c0.8-2.2,1.9-6.8,2.5-10.3c1.6-9.1,7.2-24.5,12.9-35.6
		c2.8-5.3,6-13.5,7.3-18.1s3.4-10,4.8-12c7.8-11.1,10.3-14.3,17.7-21.8c8.6-9,15.3-16.9,15.3-18.3c0.1-1.5,8.5-14.5,9.5-14.8
		c1.3-0.5,5.3,5.9,7.6,11.8c1.2,3.1,3.2,5.9,6.4,8.6c9.6,8.2,22.9,27,31.6,44.8c5.5,11.4,15.1,40.1,23.2,69.2
		c3,11.1,6.4,22.6,7.4,25.7c2.3,6.6,30.3,62.4,34.2,68.1c4,5.8,16.8,28.2,21.7,37.9c4.5,8.9,7.7,17,14.3,36.4
		c6.8,19.9,9.4,42.8,7.5,64.4c-2.4,25.3-3.9,31.6-10.1,41.5c-4.9,7.8-10,12.4-18,15.9c-7.8,3.5-8.2,5.4-2.7,12.5
		c2.2,2.7,4.3,6.3,4.9,8.1c2.1,5.9-0.9,13.7-8.4,22.5c-2.4,2.8-3.9,5.3-3.4,5.6c3.7,2.3,18.2,2.8,62.1,2.2c53-0.8,59.3-1,81.1-3
		c8.6-0.8,24.6-2.2,35.4-2.9c10.8-0.9,23.2-2,27.5-2.6c9-1.2,58.2-2.8,85.6-2.8c21.5,0,24.8-0.7,35.6-7.4c5-3,7.4-5.3,9.7-9.3
		c1.8-2.9,3.2-5.6,3.2-5.9s-3-2.1-6.9-3.9c-8.8-4.2-8.9-5.8-1.2-12.7l5.6-5h10.3c8.1,0,11.7-0.5,16.2-2.1c8.2-2.9,18.5-3.3,32.9-1.5
		c14.9,1.9,53.3,2.4,53.9,0.7c0.3-1-2.6-8.9-7.9-21.2c-4.5-10.4-19.8-34-27-41.9c-8.1-8.7-10-9.1-33.5-8.6
		c-25.3,0.7-46.7-0.6-62.1-3.6c-13.5-2.7-30.4-7.1-31.9-8.3c-0.5-0.5-5.8-3-11.8-5.7c-10.9-4.8-29.4-14.4-40.3-20.7
		c-15.3-9-20.4-12.4-28.6-19.1c-20.8-16.8-25.3-21.1-38-37.2c-13.7-17-13.8-17.1-25-31.6c-3.9-5-8.8-11.3-11-14.1
		c-2.2-2.7-4.7-6.2-5.6-7.9c-2-3.5-10.1-16.2-18.6-29c-5.5-8.3-10.4-17.8-18-34.6c-1.2-2.6-2.9-8.6-3.7-13.3
		c-0.9-4.7-3.5-14.7-5.9-22.1c-3.4-10.6-4.9-17.8-7.3-34.4c-2.9-20.5-2.9-21.4-2-38.6c1.8-30.9,1.9-33.1,2.4-50.6
		c0.3-13.2,0.9-19.1,2.5-25.3c1.2-4.4,2.5-10.6,2.9-13.8c0.7-4.9,2.8-13.1,9.3-37.9c0.9-3.1,2.3-7.1,3.2-8.8
		c1.6-3.1,5.1-17.6,5.1-21c-0.1-4.1,8.2-29.2,10.4-31.7c0.7-0.8,1.6-3,2-4.8c0.9-3.9,5.5-14.9,10.8-25.7c3.6-7.4,7.4-18.9,7.4-22.6
		c0-1.2,0.9-3.7,2-5.7c1.8-3.4,5.3-11.3,11.8-26.8c1.6-3.6,3.8-8.3,5.2-10.3c1.3-2.2,4.7-7.8,7.6-12.7c2.9-4.8,6.1-10.4,7.4-12.3
		c1.2-1.9,3.8-6.1,5.9-9.3c2.1-3.2,5.8-8.7,8.4-12.3c6.2-8.6,12.8-22.6,17.3-36.9c1.4-4.3,3.3-8.7,4.3-9.8c1-1.1,2.3-3.5,2.9-5.5
		c1.5-4.6,8.6-15.3,15.1-22.9c5.5-6.3,14.7-19.2,17.6-24.5c0.9-1.8,5.5-7.8,10.1-13.5c4.6-5.6,10.3-12.9,12.6-16s6-8,8.3-10.6
		c2.3-2.7,5.9-7.1,8-9.9c5-6.8,23.9-24.8,30.2-28.8c10.1-6.5,16.9-7.1,22.7-2.3c10.5,8.7,19.2,21.9,25.2,38.6
		c3.3,9.2,4,12.5,4.6,22.2c0.7,9.6,1.1,11.9,2.9,14.2c4.6,5.8,20,21,29.3,29c5.3,4.6,12.6,11,16.1,14.3s7.3,6.5,8.4,7.1
		c1.1,0.6,6.2,4.4,11.3,8.6c5.1,4,13,10.2,17.4,13.6c22,16.7,32,25.7,42.4,38c5.8,6.9,12.5,15.3,14.9,18.8s7.8,9.8,11.8,14.3
		c8.9,9.8,13.2,16.6,16.8,26.9c1.5,4.3,3.8,10.2,5.1,13.1c1.3,2.8,3.5,7.8,4.9,11c1.4,3.2,4.1,9.6,6.1,14.3
		c7.2,16.6,10.8,30.4,12.3,46.4c1.1,12.1,3.2,21.9,12.1,55.9c3.3,12.6,5,36.3,4.3,59.3c-0.6,19.2-2.9,37.5-5.1,39.9
		c-1.6,1.8-3.4,12.1-3.4,19.6c0,2.8-0.9,9-1.9,13.8c-1.1,4.6-2.7,13.6-3.4,19.8c-3.4,24.1-18.1,82.4-25.8,102.1
		c-2.4,6.3-5.5,14.5-6.9,18.3c-1.4,3.8-4,9.9-5.9,13.6c-1.8,3.6-5.2,11.6-7.6,17.7c-4.8,12.5-11.2,25.7-15.5,31.8
		c-4.1,6.1-11.6,19.3-16,28.3c-2.1,4.3-5.3,10.3-7.2,13.3c-4.9,7.7-10.2,19.7-13.4,30c-2.9,9.4-9.3,22.3-16.7,33.2
		c-3.2,4.8-4.5,7.8-4.5,10.1c0,3.6,3.3,11.4,9.7,22.5c11.8,20.5,14.7,28.2,17.8,46.5c1.2,6.9,2.9,15.1,3.9,18.4
		c1,3.2,2.1,7.5,2.5,9.3c0.4,1.9,1.1,4.9,1.7,6.7c1.9,6.2,1.1,6.1,61.8,4.8c30-0.7,70.2-1.2,89.3-1.2c41.3,0,135.6,1.3,140.6,2
		c8,1.1,108.5,3.4,154.3,3.7c49.5,0.2,49.6,0.2,59-2.2c7.7-2,9.9-2.9,12.6-5.6c1.7-1.9,3.1-4.1,3.1-5.2c0-2.9-14.2-3.9-21.1-1.6
		c-3.2,1.2-6.3,1.5-9.3,1.1c-2.9-0.4-5.4-0.2-7.4,0.8c-6.6,3-19,6.5-23.1,6.5c-3.1,0-5.5-0.8-8.1-2.5c-3-2.1-4.7-2.5-11.1-2.5
		c-7.5,0-7.5,0-9.4,3.3c-2.3,3.9-3.5,4.5-6.5,3.4c-1.5-0.5-2.3-1.7-2.3-2.9v-2.2l-2.4,2.2c-3,2.9-7.9,2.6-8.3-0.6
		c-0.2-1.1,0.9-4.3,2.3-7.1c1.5-2.8,2.5-5.6,2.2-6.4c-0.3-0.8-3.5-3.4-7.3-5.8c-7.4-4.9-10.2-8.3-7.7-9.1c0.8-0.4,1.5-1.3,1.5-2.1
		c0-1,0.6-1.3,1.7-0.8c1,0.3,3.8,1.1,6.3,1.6c4.3,1,4.7,0.9,7.9-2c1.8-1.7,3.6-3,4-3s1.5,1.2,2.5,2.8c5.7,9.2,10.3,9.5,19.5,1.1
		c1.7-1.6,4.8-3,7.4-3.5c4.3-0.8,4.4-1,4.7-4.7c0.2-2.2,0.8-4.4,1.4-5.1c1.8-2.3,9-1.6,13.1,1.3c2.1,1.4,4,2.1,4.3,1.6
		c1.1-1.6,11-3.4,15.5-2.8c4.3,0.6,10.2,3.6,15.8,8.2c1.5,1.3,4.7,2.6,7.2,2.9c2.6,0.3,7.2,1.9,10.2,3.3l5.7,2.8l2.2-2.4
		c3-3.2,3.3-5.4,4-30.1c0.8-23.4-0.1-31.8-4.1-43.1c-1.3-3.6-2.4-7.1-2.4-7.8c0-1.2-3.8-10.2-6-14.1c-0.6-1-2-3.6-3-5.9
		c-3.5-6.9-7.6-11.6-29-33.8c-26.5-27.6-29.7-31.1-34.4-38.1c-2.3-3.2-9.7-11.3-16.6-17.9c-7-6.7-14.2-14-15.9-16.2
		c-5.8-7.6-20.5-33.3-26.8-47c-1.7-3.5-5.3-11.5-8.3-17.7c-9.5-20.6-15-34.7-22.6-58c-4.1-12.7-8.3-24.9-9.2-27
		c-1.1-2.2-2.4-5.9-2.9-8.4c-2.4-9.5-7.1-26.6-9.3-33.6c-2.9-8.8-4.8-20.8-4.6-29.3c0.1-3.5-0.3-8-0.9-9.8s-1.5-9.1-2-16.2
		c-0.5-7-1.4-19-1.9-26.5c-0.6-7.6-1.5-20.3-2.1-28.4c-0.6-8-1.7-18.9-2.6-24.1c-1.3-7.5-1.5-13.7-1-29.6
		c0.3-11.1,0.7-31.5,0.7-45.2c0.1-34.8,1.2-47.6,5.5-65.4c3.4-14.6,9.2-34.6,11.7-40.3c0.7-1.6,2.6-6.9,4.1-11.8
		c4.2-12.6,6.6-18.7,8.7-21.8c1-1.5,2.8-4.7,3.7-7.2c1.1-2.5,3.6-7.1,5.8-10.2c2.2-3.2,4.7-8.1,5.7-10.8c1.1-2.7,2.8-6.1,3.8-7.7
		c3-4.2,10.9-21.3,18.1-39.1c3.6-8.9,8.3-19.3,10.3-23.1c2.1-3.7,6.4-11.7,9.7-17.7c3.2-5.9,6.5-12.4,7.1-14.3s3.8-7.4,7.1-12.3
		c13-19.3,23.7-31.2,34-37.5c7.9-4.8,13.8-9.1,17.3-12.7c1.2-1.2,9.4-5.7,18.3-10c17.6-8.6,25-13.6,36.3-24.3
		c8.5-8,13.6-12.1,22.5-18.2c3.5-2.4,9.5-7.2,13.4-10.7c3.8-3.6,12.1-9.7,18.3-13.7c6.2-3.9,17.6-11.6,25.5-16.9
		c7.9-5.4,18.2-12.4,22.9-15.5c53.4-34.6,58.9-38.5,65.9-47.7c3-4,9.7-11,14.7-15.5c4.9-4.5,12.4-11.4,16.4-15.2
		c4-3.7,10.9-9.8,15.2-13.4c7.7-6.3,19.7-18.3,27.5-27.6c2.2-2.6,8.2-7.9,13.3-11.7c5.1-3.9,11.1-8.6,13.3-10.5
		c4.3-3.7,14.1-15.3,15-18c0.9-2.1,9.6-12.1,21-23.9c4.7-4.8,9.8-10.6,11.4-12.8c1.6-2.2,5.6-7,8.8-10.7c3.3-3.6,6.8-8.2,7.8-9.9
		c1-1.8,3.4-5.8,5.5-8.9c7.8-12,14.6-23.8,19.1-32.8c5.1-10.3,11.7-22.5,19.6-35.9c2.9-4.8,7.5-14,10.3-20.1
		c2.8-6.2,6-12.6,7.2-14.3c1.2-1.6,2.8-4.5,3.6-6.4c3.3-7.3,6.8-11.8,9-11.8c3.4,0.1,11.7,5.1,14.1,8.6c4.6,7,6.1,27.9,3.6,53.9
		c-4.1,43.7-4.3,47.7-3.8,81.4c0.4,30.1,1.6,47.3,4,62.3c2.9,16.6,4.9,26.5,7,33.6c3.9,13,5.4,22,6.4,39.7
		c0.9,17.9,3.8,40.2,6.4,48.8c0.8,2.9,2.4,9.7,3.3,14.9c1,5.3,2.1,9.9,2.4,10.4c0.3,0.6,1,3.7,1.6,7.2c2.5,16.4,4.4,24.9,8.7,37.6
		c5.1,14.9,5.6,18.2,6.5,44.3c0.6,14.6,1.9,23.9,3.8,28c2,3.8,8.7,32.5,9.9,41.8c0.4,2.8,1.3,6.5,2.2,8.4c0.8,1.9,2.1,6.3,2.9,9.8
		c3.1,14.3,6.1,23.7,8.1,25.8c2.9,3,4.8,9,7.6,22.8c1.3,6.5,3.1,14.2,4.3,17.2s2.1,7.1,2.1,9c0,2.1,0.4,6.7,1,10.3
		c5,34.7,7.9,161.7,3.9,174.3c-2.8,8.8-5,22.4-6.8,40.8c-1.6,16-12.9,46.6-24.5,65.9c-1.9,3.2-5.8,9.6-8.6,14.3s-6.9,12.2-9.1,17
		c-2.2,4.7-4.8,9.8-5.8,11.3c-3.7,5.2-9,16.6-10.1,21.8c-0.6,2.9-2.5,8.5-4,12.3c-1.7,3.7-3.8,9.1-4.9,11.8
		c-3.9,9.9-13.8,30.5-16.4,34.3c-1.6,2.3-7,11.8-12.1,21.3c-5.1,9.4-11.2,20-13.4,23.3c-2.3,3.3-5.1,9.2-6.5,13
		c-1.4,3.8-3.2,8.4-4.1,10.1c-5.5,10.7-27,38.2-42.5,54.2c-10.9,11.4-13.5,13.5-33.8,27c-12.1,8.1-22.6,15.3-23.3,16.1
		c-0.7,0.9-3.9,3.4-7.2,5.8c-3.2,2.4-9,6.9-12.8,10.1c-3.7,3.2-8.5,7.2-10.4,8.7s-8.3,7.3-14,12.8c-8.5,8.3-12,10.9-19.7,14.8
		c-12.7,6.5-27.5,17.1-36.4,26.1c-7.7,7.9-16.3,13.2-26,16c-2.7,0.8-8,3.4-11.7,6c-3.7,2.5-8.7,5.2-11.3,6
		c-2.5,0.8-7.9,2.6-11.9,3.9c-4,1.4-8.3,2.5-9.5,2.5c-1.2,0-5.2,1.2-8.8,2.6c-3.7,1.4-10.7,3.3-15.6,4.4c-5,1-15.6,4.1-23.6,6.8
		c-8.1,2.8-20,6.6-26.4,8.5c-6.5,2-12.8,4.1-14,4.9c-4.9,3.1-5.2,5-5.1,35.6c0.1,15.6-0.1,28.9-0.4,29.4c-0.4,0.5-0.8,3.3-1.1,6.2
		c-0.3,3.3-1.4,6.5-3.1,9.2c-1.9,2.7-2.7,5.2-2.6,7.5c0.1,1.9-0.3,4.5-0.7,5.9c-0.5,1.4-1.4,5.5-2.1,9.1c-1,5.6-1,7,0.1,8
		c2.5,2.3,23.5,3.8,55.9,4c50.7,0.4,70.1-1.8,105-12c8.5-2.5,16.8-4.8,18.5-5.2c1.7-0.4,8.4-2.9,14.7-5.7c6.5-2.8,17-6.6,23.5-8.6
		c6.5-2,15.1-5,19.2-6.8c4-1.9,13.6-5.1,21.1-7.3c20.3-6,55.5-18,67.4-23.1c5.8-2.5,18.2-7.2,27.5-10.5c20-7.1,30.2-11.7,39.7-17.9
		c7.8-5,9.8-7.1,21.1-20.9c9.5-11.7,15.3-23,25.6-49.3c1.7-4.3,4.9-11.2,7.3-15.2c3.9-6.9,9.1-19.6,12.1-29.3
		c1.4-4.3,2.6-16.9,4.1-43.7c0.7-10,1.5-15.4,3-20.1c2.1-5.8,2.2-7.3,1.5-17.2c-1.4-19.5-1.1-109.4,0.3-116.6
		c0.7-3.5,1.9-12.4,2.7-19.7c3.6-37,5.6-54.7,6.4-56.5c0.5-1.1,1.1-3.9,1.4-6.4c0.3-2.5,1.2-10.4,2-17.7c0.8-7.3,2.4-16.6,3.4-20.6
		c1-4,2.2-9.5,2.6-12.3c0.5-2.7,4.2-15,8.6-27.5c4.2-12.4,8-24.1,8.2-26c0.3-1.9,0.9-6.8,1.4-10.8c0.5-4,1.7-10.7,2.6-14.7
		c1-4,2.3-10,2.9-13.3c0.6-3.2,1.7-7.5,2.3-9.3c0.6-1.9,1.9-6.3,3-9.8c1.1-3.5,2.9-10.7,3.9-16c1.2-5.3,3.4-13.1,5.1-17.2
		c1.7-4.1,4.2-10.7,5.7-14.5c2.7-6.8,11-20,20.3-32.3c2.5-3.2,7.3-11.5,10.7-18.4c3.3-6.8,7.5-14.2,9-16.2c1.7-2.1,3.5-4.8,4.2-6.2
		c0.7-1.4,3.4-5,6-8.1s4.9-6.6,5.3-7.9c0.4-1.3,2.2-4.4,3.9-7.2c3.9-6,8.3-13.4,10.6-17.9c1-1.9,3-5.2,4.6-7.4
		c1.7-2.3,2.9-4.4,2.9-4.9c0-0.9,3-5.7,8.4-13.1c1.9-2.7,4.5-6.5,5.8-8.4c7.3-10.9,29.2-33.5,42.9-43.9c4.6-3.6,10.1-8.2,12.3-10.2
		c6.1-5.7,18.8-15.8,28.4-22.7c4.8-3.4,12-8.9,16-12.4c9.7-8.4,19-15.1,26.2-19.4c3.2-2,8.9-5.8,12.6-8.7c3.6-2.8,8.3-6,10.3-7.1
		c3.4-1.8,15.8-9.7,25.4-16.2c3.6-2.5,7.4-4.8,30.6-18.9c9.7-5.8,36.4-17.9,61.8-27.9c10.3-4,20.9-8.3,23.6-9.3
		c2.8-1.2,6.4-2.5,8.2-2.8c1.8-0.4,3.7-1.2,4.4-1.8c1.1-0.8,9.4-3.9,28.2-10.5c8.2-2.9,34.2-14.1,37.1-15.9c1.2-0.8,4.2-2.1,6.9-2.8
		c5.4-1.6,18.2-6,28.3-9.8c10.2-3.8,24.2-8.1,31.2-9.4c6.9-1.3,18.6-6,37-14.7c6.6-3.2,12.5-5.8,13.1-5.8c0.5,0,3-1.1,5.6-2.4
		c2.6-1.3,7.1-3,10-4c6.4-2.1,16.2-6.9,24.9-12.2c7.7-4.7,18.2-9.6,30.2-14.3c10-3.8,15.5-6.5,28-13.6c16.6-9.3,21.8-12.1,26.5-14.1
		c2.8-1.2,10-5.4,16.2-9.5c6.2-4.1,14.8-9.2,19.2-11.5c12.2-6.2,16-8.6,24.6-15.5c4.3-3.4,14.4-10.1,22.4-14.8
		c8-4.7,22.4-13.4,32-19.4c20.5-12.7,22-13.6,31.1-18.2c3.8-2,9.4-5.3,12.7-7.5c9.7-6.5,14.5-9.3,22.7-13.5
		c4.3-2.2,14.7-7.7,23.1-12.3c8.4-4.6,18.7-10.3,22.9-12.6c4.3-2.4,8.4-4.7,9-5.3c1.3-1.1,24.4-8.8,26.2-8.8
		c2.5,0-3.6,13.5-9.4,21.1c-8.8,11.5-22.6,26.3-32.3,35c-5,4.5-10.6,9.5-12.5,11.3c-1.9,1.7-7.4,6.5-12.3,10.7
		c-11,9.4-17.1,15.9-27,28.6c-4.2,5.4-9.5,11.4-11.8,13.2c-5.7,4.5-14.3,16.3-21.5,29.5c-3.4,6.2-8.7,14.8-11.8,19.2
		c-8.7,12.4-18,29.4-21.8,40.2c-7.3,20.6-8.6,24.3-11.6,29.5c-1.7,3-4.3,7.9-5.9,10.7c-5.1,9.1-9.8,26.2-13.3,48.8
		c-0.8,4.6-2.3,10.8-3.2,13.8c-1.1,2.9-3.1,8.6-4.5,12.3c-10.3,28.7-15,48-20.3,84c-1.2,7.9-2.6,18-2.9,22.6
		c-1.6,15.4-5.8,37.1-10.5,53.6c-2.7,9.3-6.2,22.2-10.6,38.3c-1.5,5.4-3.7,13.2-5,17.2c-2.9,8.6-8.7,31.2-9.7,37.1
		c-0.6,4-6.5,21.3-8.4,24.9c-0.5,0.9-1.8,5.1-2.9,9.2c-1.1,4.2-3.2,10.1-4.8,13.3c-5.2,10.2-8.8,21.1-10.3,30.6
		c-1.8,12-3.7,19.4-6.8,25.3c-12.4,24.7-15.2,30.6-18.2,38.1c-2.8,7-7.2,14.4-29.5,49.5c-5,7.9-10.4,17.2-12.1,20.7
		s-4.1,8.4-5.4,10.8c-3.1,5.7-4.4,8.6-8.6,18.3c-8.7,20.9-33.8,56.6-56.1,79.8c-6.6,6.8-16.5,17.2-22.2,23.1
		c-12.9,13.4-24,22.8-37.5,31.9c-5.9,3.8-13.4,9.1-16.7,11.8c-3.4,2.7-9.5,7.1-13.7,9.9c-4.1,2.8-9,6.8-10.9,8.9
		c-2,2.1-8.7,7.2-15.1,11.4c-17.2,11.1-29,18.9-41.7,27.6c-6.2,4.2-14.6,9.6-18.7,12s-10.2,6.2-13.8,8.5
		c-7.2,4.6-30.4,16.2-32.5,16.2c-0.8,0-2.7,0.7-4.3,1.6c-1.6,0.9-5.6,2.7-8.9,3.8c-3.2,1.3-11.2,4.8-17.7,7.9
		c-11,5.2-27.2,11-46.6,16.6c-4.6,1.3-10.8,3.3-13.8,4.5c-2.9,1.2-6.7,2.5-8.4,2.9c-1.6,0.5-6.9,2-11.8,3.3c-11.4,3.2-26,6-46.6,8.5
		c-8.9,1.2-19.4,2.7-23.2,3.4c-3.7,0.8-10.4,1.9-14.7,2.5c-4.3,0.6-13.4,2-20.1,3c-6.7,1.1-16.9,2.4-22.6,2.9
		c-5.7,0.4-15.5,1.5-21.7,2.4c-12.4,1.7-39,3.6-46.5,3.5c-2.7-0.1-5.8,0.5-6.9,1.3c-2.8,1.7-15.1,5.6-27.2,8.6
		c-24.7,6-33.5,9.5-37.8,15.1c-2.9,3.9-8.3,15.8-12.8,29.1c-2.9,8.3-9.9,23-16.8,35.1c-2.9,5.2-2.9,6.8,0.3,11.5
		c2.3,3.4,2.5,4.3,1.6,7.7c-1.8,6.7,0.2,8.1,16.8,12.2c10.2,2.6,16.6,5.8,32.5,16.2c15.7,10.2,27.3,17,32,18.6
		c4.1,1.4,6.1,1.5,15.8,0.4c6.1-0.6,11.4-1,11.8-0.8c1.4,0.9,23.6-1.7,34.7-4c12.6-2.6,19-4.2,26-6.8c2.5-0.9,10.8-3.6,18.7-6.1
		c7.9-2.6,17.4-6,21.1-7.8c25.8-12.1,30.7-14.6,35.2-18.5c8.6-7.2,21.9-15.6,42.9-27.4c1.8-1,8.4-3.8,14.7-6.3
		c6.3-2.6,17.6-7.4,25.2-10.7c7.6-3.4,16.2-6.7,19.2-7.3c5.5-1,10.9-2.6,33.9-9.9c7.1-2.3,16.3-4.4,20.6-4.9
		c8.6-1,31.9-4.3,41.3-5.9c10.4-1.8,32-4,48.2-4.9c8.6-0.5,18-1.1,20.6-1.4c2.8-0.3,9.1-1,14.3-1.6c24.7-2.7,70.2-1.6,83.6,1.9
		c4.1,1.1,11.1,2.5,15.5,3c12,1.7,23.6,4.3,29.1,6.8c6.1,2.7,41.3,12,60.4,15.9c27,5.5,51.2,15.3,73.1,29.7
		c15.5,10.2,18.9,12.3,25.7,15.9c13.5,7.3,16.9,9.9,32.9,25.6c8.9,8.7,18,17.2,20.2,18.8c2.2,1.6,6.2,4.8,8.8,7.1
		c13.5,11.6,30.2,24.9,37.8,30.2c4.7,3.2,11.7,8.1,15.5,10.6c3.7,2.7,9.3,7.4,12.3,10.5c2.9,3.2,8.6,8.2,12.6,11.1
		c7.5,5.6,40,37.3,44.7,43.7c1.5,2,9.8,10.7,18.5,19.4c8.7,8.7,22.2,23.2,30.1,32.3c7.8,9.1,19.3,21.8,25.5,28.1
		c6.2,6.2,15,15.9,19.7,21.4c9.1,11,28.6,29.6,43.7,42c5.4,4.3,13.2,11,17.3,14.8c4.1,3.9,11,9.6,15.2,12.8
		c17.9,13.1,38.9,28.9,49.1,36.9c12.8,10,32.1,22.9,46.2,30.6c5.4,3,17.2,10.3,26.1,16.1c8.9,5.9,18.9,12.2,22,14
		c7.4,4.1,21.3,14.1,30.1,21.4c10.4,8.8,15.9,12.5,29.8,19.7c7.1,3.6,15.9,8.6,19.7,11.2c3.8,2.6,10.2,6.8,14.2,9.4
		c4,2.7,9,6.2,11,7.9c2.1,1.7,8.9,6.4,15.3,10.3c7.7,4.8,13.9,9.6,18.2,14.2c3.6,3.7,6.5,6.9,6.3,7.1c-0.1,0.2-6.8,0.5-14.7,0.8
		c-8,0.3-14.8,0.7-15.2,1c-0.5,0.2-6.3-0.2-13-1.1c-10.3-1.3-20.2-3.4-36.8-8.3c-3.3-0.9-35.4-12-56.5-19.6
		c-18.6-6.6-22.5-7.6-40.4-9.9c-8.3-1.2-15.2-2.3-15.6-2.5c-1.2-0.7-20.6-3.3-32.4-4.4c-15.8-1.5-65.3-0.6-80.6,1.4
		c-17,2.3-44.2,4.2-59.5,4.4c-12.3,0.2-30.5,2-39.8,4c-6.4,1.4-21.2,2.9-27.5,2.9c-2.9,0-8.9,0.9-13.3,2c-6.9,1.8-22.4,3.9-48.7,6.9
		c-13.1,1.5-28.9,4-33.9,5.5c-7.2,2-27.4,5.3-32.7,5.3c-6.1,0-48.2,7-50.3,8.4c-0.3,0.2-4.3,0.6-8.8,1c-14.1,1-25.4,2.5-40.1,4.9
		c-7.8,1.4-15.7,2.5-17.7,2.5c-2.1,0-10,1.4-17.9,3c-9.1,1.9-20.7,3.5-32.2,4.4c-9.9,0.7-19.9,1.9-22.1,2.6
		c-2.9,0.9-12.2,1.2-30.7,1.2c-28.7,0-36.6-0.9-53.3-5.9c-9.5-2.9-11.2-3.2-28.3-6.3c-10.8-2-15.9-3.2-35.4-8.6
		c-3.7-1.1-11.3-2.9-16.7-4.2c-5.4-1.2-13.8-3.2-18.7-4.5c-4.8-1.3-12.8-3.4-17.7-4.7c-13.9-3.6-31.8-9.2-38.3-11.9
		c-3.2-1.4-9.1-3.6-13.2-4.9c-11.7-4-47-21.9-53.7-27.3c-2.2-1.8-7.5-5.3-11.7-7.9c-8.2-4.9-25.4-17.7-33.1-24.6
		c-2.5-2.3-6.9-5.6-9.7-7.5c-2.8-1.9-7.4-5.2-10.2-7.4c-2.8-2.3-10.5-7.8-17.3-12.3c-13.3-8.8-22.8-16.2-31.6-24.1
		c-2.9-2.7-8-6.5-11-8.4c-9.1-5.5-40.5-39.2-45.8-49.1c-1.9-3.4-5.6-8.8-8.4-12.2c-2.9-3.3-7-9-9.2-12.9
		c-4.2-7.2-7.5-10.9-18.2-20.6c-3.6-3.2-6.6-6.4-6.6-7s-0.9-1.9-2-2.8c-2.7-2.4-8.7-13-14.3-24.6c-2.5-5.4-6-12-7.8-14.7
		c-4.1-6.2-13.4-22-16.9-28.8c-2.2-4.1-2.7-6.5-2.6-10.9c0.1-4.7-0.3-6.4-2.8-10.2c-1.8-2.8-4.4-5.3-6.8-6.6
		c-4.9-2.5-13.9-13.6-20.4-25.2c-2.6-4.6-6.7-10.9-9.2-14.1c-5.3-6.7-10.1-15.5-11.7-21.7c-1.9-7.3-7.4-16.6-15.2-25.9
		c-4-4.7-7.4-9-7.4-9.4c0-0.5-2.3-2.5-5-4.5c-2.9-2.1-7.4-5.6-10.1-8c-7.3-6.2-25-17.7-37.4-24.4c-5.9-3.1-12-6.6-13.5-7.6
		c-2.3-1.6-3.2-1.7-7.1-0.8c-5.2,1.2-17.3,0.6-20.1-0.9c-4.5-2.5-22.6-0.4-31.8,3.7c-2.7,1.2-8.6,3.4-13.3,5
		c-4.7,1.7-10.7,3.8-13.5,4.9c-2.7,1-9.5,3.4-15.2,5.5s-11.2,4.2-12.3,5c-1.1,0.7-2.9,1.3-4,1.3s-6.3,1.6-11.3,3.4
		c-5.1,2-18.3,6.5-29.4,10.2c-11.1,3.7-21.9,7.5-24.1,8.3c-6,2.3-25.1,8.1-40.3,12.4c-13.4,3.7-19.9,6-28.7,10
		c-2.4,1.1-5.7,2.2-7.5,2.6c-1.7,0.3-7.6,2-13,3.7c-14.1,4.7-35.3,9.2-57,12.4c-5.2,0.8-103.7,3.2-115.8,2.9
		c-5.4-0.1-8.1,1-11.2,4.7c-2.9,3.3-2.9,7.9,0.1,12.1c4.7,7,32,62.1,33.5,67.6c1.2,4.2,5.4,9.6,8.2,10.3c1.5,0.4,4.9,1.7,7.7,2.9
		c7,3.1,11.2,4.1,21.9,4.8c7.2,0.6,12.2,1.7,22.6,5.1c17.3,5.8,23.7,7.3,31.6,7.3c6.4,0,23.6,2.5,37.3,5.4c4,0.9,11.1,2,15.7,2.5
		c24.4,2.6,50,7.3,55.6,10.1c1.6,0.8,5.3,2,8.3,2.6s9.4,2.9,14.4,5c5,2.2,9.4,3.9,9.9,3.9c0.4,0,6.3,1.6,13,3.4
		c9.2,2.7,14.3,4.7,20.2,8.4c11.8,7.2,21.6,11.4,29.9,12.7c8.5,1.4,16.2,3.6,19.4,5.6c12.1,7.6,39.8,18.8,58.4,23.5
		c7.7,2,20.4,6.4,26.4,9.2c2.5,1.1,7.6,3.1,11.3,4.6c15.3,5.8,46.3,24.5,58.8,35.5c4.4,3.9,8.5,7.2,8.9,7.2c0.4,0,2.9,1.5,5.4,3.2
		c6.6,4.8,15.3,9.4,22.6,12.2c16.5,6,29,15.8,47.6,37.2c4.1,4.9,10.9,12.6,15,17.2c4.1,4.6,8.4,10,9.3,12c1.1,2.1,3.8,5.9,6.3,8.7
		c4.3,4.9,7.1,8.7,17.5,24.6c3,4.6,7.7,11.5,10.3,15.2c5.1,7.3,7.5,11.6,14,25.2c2.3,4.7,5.9,11,8.2,14c2.3,3,5.3,7.4,6.8,9.7
		c1.6,2.4,4.4,6.4,6.6,9c2.2,2.7,4,6.2,4.3,7.9c0.3,1.7,1.7,7.3,3,12.4c6.9,24.3,9.6,35.6,10.8,43.2c0.8,4.6,2.6,11.1,3.9,14.4
		c1.5,3.4,3.4,10.7,4.5,16.2c1.1,5.6,2.9,14.5,4,20c1.8,8.3,2.3,14.3,2.8,37.8c0.6,25.9,0.9,28.3,2.9,32.5c1.2,2.5,2.9,8.3,4,12.9
		c1.1,4.6,3.3,11.8,4.9,15.9c1.7,4,4.3,13.5,5.9,20.9c2.5,11.5,3,16.4,3.4,32.2c0.5,17.6,0.7,19.2,3.4,27.5c1.7,4.8,3,10,3,11.5
		s0.7,5.2,1.5,8.4c1,3.8,1.7,12.7,2.1,26.7c0.3,11.6,0.9,22.9,1.4,25.1c1.4,7,4.8,19.6,6.8,25.5c1.1,3.1,2.5,8.5,3.1,11.8
		c2.9,15.9,12,44.7,17.9,56.3c2.7,5.3,7.9,18.8,12.4,32.3c8.1,24.2,26,53.5,48.3,78.9c15.6,17.9,20.6,24.3,27.5,35.5
		c3.5,5.7,8.7,12.9,11.6,15.9c4.8,5.3,5.2,6,4.9,9.9c-0.3,4-0.4,4.2-3.7,4.4C2446.5,25404.8,2443.6,25404.4,2441.9,25403.8z
		 M966.2,24297.3c7.3-0.5,14.7-1.4,16.5-1.9c1.8-0.6,6.3-1.3,10-1.7c5.8-0.6,7.4-1.2,10.7-3.9c4.6-4,6-9,3.7-14.3
		c-2.5-5.9-4.9-7.3-12.9-7.3c-6.5,0-7.6,0.3-12.5,3.5c-2.9,1.9-6.9,4-8.7,4.8c-6.6,2.6-31,14.9-34.1,17.4c-1.8,1.3-3.2,3-3.2,3.9
		c0,1.4,1.1,1.5,8.6,0.9C949.1,24298.5,958.9,24297.8,966.2,24297.3z M2655.7,23322.3c0-1.1-0.4-2-1-2c-0.5,0-1,0.9-1,2
		c0,1.1,0.5,2,1,2C2655.3,23324.3,2655.7,23323.4,2655.7,23322.3z"/>
</g>
</svg>
