<?xml version="1.0" encoding="utf-8"?>
<!-- Generator: Adobe Illustrator 25.0.0, SVG Export Plug-In . SVG Version: 6.00 Build 0)  -->
<svg version="1.1" id="Layer_1" xmlns="http://www.w3.org/2000/svg" xmlns:xlink="http://www.w3.org/1999/xlink" x="0px" y="0px"
	 viewBox="0 0 100 100" style="enable-background:new 0 0 100 100;" xml:space="preserve">
<g>
	<path d="M89.5,36c-4.4-5.3-10.2-9.9-15.9-13.6c-5.8-3.7-11.8-4.5-18.5-2.8c-7.5,1.9-15.4,5.1-21.3,10.1
		c-5.3,4.4-8.7,10.5-11.6,16.7c-1.5-2-3.1-4-4.4-6.3C14,33.5,9.8,27,5.3,20.5c-1.8-2.6-6.1-0.1-4.3,2.6c3.8,5.5,7.6,11,10.9,16.8
		c1.5,2.7,2.9,5.4,4.7,7.9c0.6,0.8,1.4,1.6,1.9,2.5c0.2,0.3,0.4,0.6,0.5,0.8c0,0.3,0,0.6,0.1,0.9c-0.2,0.3-0.6,0.6-1.2,1.5
		C14.6,57.6,11,61.8,9,66.6c-1.2,2.9-2,5.8-3.6,8.5c-1.6,2.7-1.8,5.3-3.1,8.1c-1.4,2.9,3,5.4,4.3,2.5c1.4-3,1.8-5.9,3.5-8.8
		c1.6-2.7,2.4-5.8,3.6-8.7c1.9-4.3,5.7-7.7,8.3-11.6c7.4,8.9,21.1,12.4,31.8,14.7c7.8,1.7,15.7,2.1,23.7,1.7
		c6-0.3,13.2-0.4,17.8-4.7C105.3,58.9,96.3,44.3,89.5,36z M86.1,67c-7.2,1.5-15.3,1.3-22.6,0.7c-7.8-0.7-15.3-2.9-22.7-5.4
		c-6.3-2.1-12.4-4.9-16-10.4c0,0,0,0,0,0c2.8-6.1,5.7-12.4,10.5-17.2c5.3-5.3,12.9-8.3,20-10.2c9.3-2.4,15.3,1.5,22.2,7.1
		c6,4.9,10.5,10.5,14.2,17.3C95.6,56.1,96,65,86.1,67z"/>
	<path d="M86.6,52.7C86.6,52.7,86.6,52.7,86.6,52.7c-0.5-0.3-1.2-1.7-1.6-2.1c-0.2-0.3-0.4-0.5-0.6-0.8c0.6-0.6,1.2-1.2,1.8-1.8
		c2.3-2.2-1.2-5.7-3.5-3.5c-0.5,0.5-0.9,0.9-1.4,1.4c-0.7-0.9-1.3-1.7-2-2.6c-2.2-2.4-5.7,1.1-3.7,3.6c0.7,0.9,1.5,1.9,2.2,2.9
		c-1.2,1.5-2.3,3.1-3.3,4.7c-1.7,2.7,2.6,5.3,4.3,2.5c0.7-1.1,1.4-2.1,2.2-3.1c0.9,1.3,1.8,2.6,2.9,3.2c1.4,0.8,3.3,0.1,3.7-1.5
		v-0.1C87.8,54.4,87.4,53.3,86.6,52.7z"/>
</g>
</svg>
